<svg xmlns="http://www.w3.org/2000/svg" xmlns:xlink="http://www.w3.org/1999/xlink" preserveAspectRatio="xMidYMid" width="32.06" height="32.06" viewBox="0 0 32.06 32.06">
  <defs>
    <style>
      .cls-1 {
        fill: #fff;
        opacity: 0.25;
        fill-rule: evenodd;
      }
    </style>
  </defs>
  <path d="M2.715,0.169 C1.248,0.213 0.297,0.988 0.170,2.327 C0.170,2.371 0.170,2.371 0.170,2.414 L-0.002,11.133 L-0.002,11.221 C-0.002,12.731 0.557,13.767 1.077,14.369 L1.120,14.414 L18.165,31.416 C19.028,32.278 20.494,32.278 21.357,31.416 L31.410,21.362 C31.841,20.931 32.057,20.371 32.057,19.764 L32.057,19.764 C32.057,19.160 31.841,18.597 31.410,18.166 L23.083,9.795 C22.995,9.707 22.912,9.623 22.780,9.535 L14.625,1.380 C14.022,0.860 12.727,-0.043 10.957,-0.003 L2.715,0.169 ZM13.502,2.542 L21.701,10.741 C21.745,10.786 21.789,10.830 21.829,10.830 C21.873,10.873 21.917,10.873 21.957,10.918 L30.291,19.288 C30.551,19.548 30.551,19.980 30.291,20.239 L20.235,30.292 C19.975,30.552 19.543,30.552 19.284,30.292 L2.283,13.291 C1.979,12.903 1.592,12.212 1.592,11.221 L1.764,2.462 C1.808,2.118 1.979,1.815 2.755,1.771 L10.997,1.599 C12.208,1.595 13.115,2.199 13.502,2.542 ZM4.313,7.377 C4.313,9.060 5.651,10.398 7.333,10.398 C9.015,10.398 10.354,9.060 10.354,7.377 C10.354,5.695 9.015,4.356 7.333,4.356 C5.651,4.356 4.313,5.695 4.313,7.377 ZM8.756,7.377 C8.756,8.152 8.109,8.800 7.333,8.800 C6.558,8.800 5.911,8.152 5.911,7.377 C5.911,6.602 6.558,5.955 7.333,5.955 C8.109,5.955 8.756,6.602 8.756,7.377 ZM16.611,13.075 C16.914,12.771 17.430,12.771 17.733,13.075 L24.422,19.764 C24.594,19.936 24.638,20.108 24.638,20.323 C24.638,20.539 24.550,20.711 24.422,20.883 C24.118,21.186 23.603,21.186 23.299,20.883 L16.611,14.194 C16.307,13.895 16.307,13.375 16.611,13.075 ZM11.952,13.938 L21.102,23.088 C21.274,23.260 21.317,23.432 21.317,23.648 C21.317,23.863 21.230,24.035 21.102,24.207 C20.798,24.511 20.283,24.511 19.979,24.207 L10.829,15.057 C10.526,14.753 10.526,14.238 10.829,13.934 C11.129,13.635 11.604,13.635 11.952,13.938 Z" class="cls-1"/>
</svg>
