<svg xmlns="http://www.w3.org/2000/svg" xmlns:xlink="http://www.w3.org/1999/xlink" preserveAspectRatio="xMidYMid" width="55.063" height="55.06" viewBox="0 0 55.063 55.06">
  <defs>
    <style>
      .cls-1 {
        fill: #fff;
        opacity: 0.23;
        fill-rule: evenodd;
      }
    </style>
  </defs>
  <path d="M54.770,4.666 C54.694,2.148 53.363,0.515 51.064,0.296 C50.989,0.296 50.989,0.296 50.913,0.296 L35.940,0.000 L35.789,0.000 C33.195,0.000 31.418,0.962 30.382,1.853 L30.306,1.928 L1.108,31.201 C-0.374,32.683 -0.374,35.201 1.108,36.683 L18.373,53.947 C19.114,54.687 20.075,55.058 21.118,55.058 L21.118,55.058 C22.154,55.058 23.122,54.687 23.863,53.947 L38.239,39.647 C38.390,39.496 38.534,39.352 38.685,39.126 L52.690,25.121 C53.583,24.085 55.133,21.862 55.065,18.822 L54.770,4.666 ZM50.694,23.193 L36.613,37.273 C36.537,37.348 36.462,37.424 36.462,37.492 C36.386,37.568 36.386,37.643 36.311,37.712 L21.935,52.025 C21.489,52.471 20.748,52.471 20.302,52.025 L3.037,34.755 C2.590,34.309 2.590,33.568 3.037,33.122 L32.235,3.925 C32.900,3.404 34.087,2.739 35.789,2.739 L50.831,3.034 C51.421,3.109 51.942,3.404 52.018,4.735 L52.313,18.891 C52.320,20.970 51.284,22.527 50.694,23.193 ZM42.390,7.411 C39.502,7.411 37.203,9.710 37.203,12.598 C37.203,15.487 39.502,17.786 42.390,17.786 C45.279,17.786 47.578,15.487 47.578,12.598 C47.578,9.710 45.279,7.411 42.390,7.411 ZM42.390,15.041 C41.059,15.041 39.948,13.929 39.948,12.598 C39.948,11.267 41.059,10.156 42.390,10.156 C43.722,10.156 44.833,11.267 44.833,12.598 C44.833,13.929 43.722,15.041 42.390,15.041 ZM32.605,28.532 C33.127,29.053 33.127,29.938 32.605,30.460 L21.118,41.946 C20.823,42.241 20.528,42.316 20.157,42.316 C19.787,42.316 19.492,42.165 19.197,41.946 C18.675,41.424 18.675,40.539 19.197,40.018 L30.684,28.532 C31.198,28.010 32.090,28.010 32.605,28.532 ZM31.123,20.531 L15.409,36.243 C15.114,36.539 14.819,36.615 14.448,36.615 C14.077,36.615 13.783,36.463 13.487,36.243 C12.966,35.722 12.966,34.837 13.487,34.315 L29.202,18.603 C29.723,18.081 30.608,18.081 31.130,18.603 C31.644,19.117 31.644,19.934 31.123,20.531 Z" class="cls-1"/>
</svg>
