<svg xmlns="http://www.w3.org/2000/svg" xmlns:xlink="http://www.w3.org/1999/xlink" preserveAspectRatio="xMidYMid" width="54" height="18" viewBox="0 0 54 18">
  <defs>
    <style>
      .cls-1 {
        fill: #fff;
        opacity: 0.22;
        fill-rule: evenodd;
      }
    </style>
  </defs>
  <path d="M10.570,18.000 L10.572,18.003 L50.024,18.003 L49.992,17.958 C50.262,17.986 50.528,18.003 50.787,18.003 C53.977,18.003 54.984,15.801 53.036,13.084 C51.089,10.368 46.924,8.166 43.734,8.166 C42.120,8.166 41.066,8.730 40.669,9.639 C37.603,6.182 32.206,3.526 27.983,3.526 C26.137,3.526 24.797,4.034 24.028,4.895 C20.222,1.991 15.260,-0.001 11.178,-0.001 C5.577,-0.001 3.691,3.748 6.794,8.459 C5.619,8.037 4.437,7.795 3.362,7.795 C0.052,7.795 -0.994,10.079 1.027,12.899 C3.026,15.686 7.275,17.950 10.570,18.000 Z" class="cls-1"/>
</svg>
