<svg xmlns="http://www.w3.org/2000/svg" xmlns:xlink="http://www.w3.org/1999/xlink" preserveAspectRatio="xMidYMid" width="170" height="57" viewBox="0 0 170 57">
  <defs>
    <style>
      .cls-1 {
        fill: #fff;
        opacity: 0.45;
        fill-rule: evenodd;
      }
    </style>
  </defs>
  <path d="M136.743,57.003 L136.737,57.010 L12.609,57.010 L12.708,56.870 C11.859,56.960 11.023,57.010 10.209,57.010 C0.172,57.010 -2.998,50.037 3.130,41.435 C9.257,32.833 22.361,25.860 32.398,25.860 C37.477,25.860 40.793,27.647 42.041,30.525 C51.688,19.577 68.670,11.166 81.955,11.166 C87.763,11.166 91.982,12.777 94.401,15.501 C106.376,6.307 121.986,-0.001 134.830,-0.001 C152.453,-0.001 158.386,11.868 148.623,26.788 C152.320,25.452 156.039,24.684 159.422,24.684 C169.837,24.684 173.126,31.921 166.767,40.847 C160.479,49.675 147.112,56.845 136.743,57.003 Z" class="cls-1"/>
</svg>
