<svg xmlns="http://www.w3.org/2000/svg" xmlns:xlink="http://www.w3.org/1999/xlink" preserveAspectRatio="xMidYMid" width="143.969" height="49" viewBox="0 0 143.969 49">
  <defs>
    <style>
      .cls-1 {
        fill: #fff;
        opacity: 0.16;
        fill-rule: evenodd;
      }
    </style>
  </defs>
  <path d="M116.961,49.010 L12.276,49.010 L12.345,48.912 C11.635,48.975 10.935,49.010 10.250,49.010 C0.179,49.010 -3.030,42.045 3.083,33.453 C9.196,24.860 22.317,17.896 32.388,17.896 C33.952,17.896 35.350,18.064 36.574,18.380 C47.110,7.827 63.828,-0.006 77.121,-0.006 C88.740,-0.006 94.460,5.978 92.725,14.532 C99.590,10.893 107.087,8.644 113.601,8.644 C125.306,8.644 129.849,15.911 124.947,25.448 C128.495,23.946 132.153,23.060 135.424,23.060 C143.817,23.060 146.487,28.869 141.389,36.035 C136.290,43.201 125.353,49.010 116.961,49.010 Z" class="cls-1"/>
</svg>
