<svg xmlns="http://www.w3.org/2000/svg" xmlns:xlink="http://www.w3.org/1999/xlink" preserveAspectRatio="xMidYMid" width="112" height="46" viewBox="0 0 112 46">
  <defs>
    <style>
      .cls-1 {
        fill: #fff;
        opacity: 0.45;
        fill-rule: evenodd;
      }
    </style>
  </defs>
  <path d="M28.056,45.999 C28.308,45.999 28.554,45.993 28.796,45.983 L28.807,45.999 L102.449,45.999 L102.444,45.991 C111.901,45.820 114.853,39.169 109.005,30.982 C103.080,22.689 90.371,15.965 80.618,15.965 C76.374,15.965 73.391,17.239 71.861,19.361 C62.147,8.403 45.041,-0.010 31.633,-0.010 C17.143,-0.010 12.379,9.815 20.739,22.057 C16.754,20.245 12.581,19.161 8.882,19.161 C0.167,19.161 -2.606,25.169 2.689,32.580 C7.983,39.991 19.340,45.999 28.056,45.999 Z" class="cls-1"/>
</svg>
