<svg xmlns="http://www.w3.org/2000/svg" xmlns:xlink="http://www.w3.org/1999/xlink" preserveAspectRatio="xMidYMid" width="27.657" height="27.62" viewBox="0 0 27.657 27.62">
  <defs>
    <style>
      .cls-1 {
        fill: #fff;
        opacity: 0.31;
        fill-rule: evenodd;
      }
    </style>
  </defs>
  <path d="M13.839,27.609 C6.202,27.609 0.011,21.425 0.011,13.796 C0.011,6.168 6.202,-0.017 13.839,-0.017 C21.477,-0.017 27.668,6.168 27.668,13.796 C27.668,21.425 21.477,27.609 13.839,27.609 ZM13.839,1.817 C7.215,1.817 1.846,7.181 1.846,13.797 C1.846,20.412 7.215,25.775 13.839,25.775 C20.463,25.775 25.832,20.412 25.832,13.797 C25.832,7.181 20.463,1.817 13.839,1.817 ZM14.497,12.731 C16.551,13.541 17.428,14.560 17.428,16.137 C17.428,17.672 16.398,18.895 14.725,19.270 C14.708,19.275 14.628,19.284 14.628,19.393 L14.628,20.551 C14.628,20.869 14.430,22.071 14.063,22.071 L13.469,22.071 C13.101,22.071 12.921,20.868 12.921,20.551 L12.921,19.450 C12.921,19.369 12.832,19.337 12.814,19.334 C12.749,19.325 11.282,19.093 10.523,18.699 C10.333,18.600 10.185,18.378 10.281,18.104 L10.553,17.371 C10.634,17.151 10.839,17.009 11.074,17.009 C11.160,17.009 11.244,17.027 11.323,17.065 C11.335,17.071 12.570,17.649 13.482,17.649 C14.550,17.649 15.296,17.076 15.296,16.257 C15.296,15.505 14.769,14.991 13.479,14.485 C11.864,13.872 10.369,13.056 10.369,11.249 C10.369,9.799 11.350,8.650 12.921,8.276 C12.954,8.269 13.046,8.232 13.046,8.147 L13.045,7.041 C13.045,6.723 13.310,6.466 13.635,6.466 L14.144,6.466 C14.469,6.466 14.734,6.723 14.734,7.041 L14.738,8.093 C14.738,8.174 14.808,8.189 14.828,8.193 C14.841,8.195 16.085,8.409 16.721,8.686 C16.913,8.769 17.063,8.999 16.964,9.263 L16.680,9.989 C16.597,10.200 16.397,10.337 16.170,10.337 C16.078,10.337 15.984,10.313 15.901,10.269 C15.894,10.265 15.101,9.857 14.067,9.857 C12.898,9.857 12.483,10.497 12.483,11.043 C12.483,11.726 12.934,12.105 14.497,12.731 Z" class="cls-1"/>
</svg>
