<svg xmlns="http://www.w3.org/2000/svg" xmlns:xlink="http://www.w3.org/1999/xlink" preserveAspectRatio="xMidYMid" width="70.68" height="70.59" viewBox="0 0 70.68 70.59">
  <defs>
    <style>
      .cls-1 {
        fill: #fff;
        opacity: 0.28;
        fill-rule: evenodd;
      }
    </style>
  </defs>
  <path d="M35.328,70.602 C15.809,70.602 -0.013,54.797 -0.013,35.301 C-0.013,15.806 15.809,0.001 35.328,0.001 C54.846,0.001 70.669,15.806 70.669,35.301 C70.669,54.797 54.846,70.602 35.328,70.602 ZM35.327,4.688 C18.399,4.688 4.678,18.395 4.678,35.302 C4.678,52.209 18.399,65.916 35.327,65.916 C52.254,65.916 65.976,52.209 65.976,35.302 C65.976,18.395 52.254,4.688 35.327,4.688 ZM37.009,32.579 C42.259,34.651 44.499,37.254 44.500,41.285 C44.500,45.208 41.866,48.333 37.590,49.293 C37.548,49.302 37.344,49.327 37.344,49.605 L37.344,52.566 C37.344,53.376 36.839,56.450 35.900,56.450 L34.381,56.450 C33.442,56.450 32.981,53.376 32.981,52.566 L32.981,49.752 C32.981,49.543 32.753,49.463 32.708,49.457 C32.541,49.431 28.792,48.840 26.854,47.832 C26.368,47.579 25.989,47.011 26.235,46.311 L26.928,44.436 C27.138,43.875 27.660,43.512 28.261,43.512 C28.481,43.512 28.695,43.560 28.897,43.656 C28.928,43.671 32.083,45.147 34.415,45.147 C37.145,45.147 39.051,43.685 39.051,41.591 C39.051,39.667 37.705,38.356 34.406,37.062 C30.280,35.496 26.458,33.409 26.458,28.791 C26.458,25.087 28.967,22.150 32.980,21.195 C33.066,21.175 33.301,21.082 33.301,20.864 L33.298,18.038 C33.298,17.227 33.975,16.568 34.805,16.568 L36.107,16.568 C36.938,16.568 37.615,17.228 37.615,18.037 L37.625,20.726 C37.625,20.934 37.803,20.972 37.855,20.981 C37.887,20.987 41.067,21.534 42.694,22.242 C43.183,22.452 43.566,23.041 43.313,23.717 L42.587,25.570 C42.375,26.111 41.864,26.461 41.286,26.461 C41.049,26.461 40.809,26.400 40.596,26.286 C40.578,26.277 38.551,25.236 35.909,25.236 C32.921,25.236 31.862,26.869 31.862,28.266 C31.862,30.013 33.015,30.980 37.009,32.579 Z" class="cls-1"/>
</svg>
