<svg xmlns="http://www.w3.org/2000/svg" xmlns:xlink="http://www.w3.org/1999/xlink" preserveAspectRatio="xMidYMid" width="43" height="41" viewBox="0 0 43 41">
  <defs>
    <style>
      .cls-1 {
        fill: #509ae4;
        fill-rule: evenodd;
      }
    </style>
  </defs>
  <path d="M41.709,8.140 C39.062,9.303 37.104,10.803 35.798,12.641 C34.202,14.929 33.332,17.968 33.259,21.756 L40.114,21.756 C41.310,21.756 42.289,22.769 42.289,24.007 L42.289,38.749 C42.289,39.987 41.310,41.000 40.114,41.000 L25.861,41.000 C24.665,41.000 23.685,39.987 23.685,38.749 L23.685,27.233 C23.685,21.606 24.157,17.217 25.100,14.067 C26.043,10.879 27.820,7.990 30.395,5.440 C32.534,3.338 35.145,1.576 38.191,0.225 C39.279,-0.263 40.512,0.225 41.020,1.313 L42.797,5.139 C43.305,6.264 42.833,7.652 41.709,8.140 ZM18.061,8.140 C15.413,9.303 13.455,10.803 12.149,12.641 C10.554,14.929 9.683,17.968 9.611,21.756 L16.429,21.756 C17.625,21.756 18.605,22.769 18.605,24.007 L18.605,38.749 C18.605,39.987 17.625,41.000 16.429,41.000 L2.176,41.000 C0.980,41.000 0.001,39.987 0.001,38.749 L0.001,27.233 C0.001,21.644 0.508,17.256 1.451,14.029 C2.394,10.841 4.135,7.952 6.710,5.440 C8.813,3.301 11.460,1.538 14.543,0.188 C15.631,-0.300 16.864,0.188 17.372,1.276 L19.149,5.139 C19.656,6.264 19.185,7.652 18.061,8.140 Z" class="cls-1"/>
</svg>
