<svg xmlns="http://www.w3.org/2000/svg" xmlns:xlink="http://www.w3.org/1999/xlink" preserveAspectRatio="xMidYMid" width="75.125" height="78.18" viewBox="0 0 75.125 78.18">
  <defs>
    <style>
      .cls-1 {
        fill: #fff;
        opacity: 0.18;
        fill-rule: evenodd;
      }
    </style>
  </defs>
  <path d="M16.072,70.026 C15.334,70.850 13.826,71.524 12.720,71.524 L5.538,71.524 C4.432,71.524 3.909,70.370 4.648,69.547 L59.526,8.483 C60.265,7.660 61.775,6.970 62.880,6.950 L69.473,6.808 C71.299,6.807 71.348,8.149 70.611,8.974 L16.072,70.026 ZM18.514,35.996 C6.368,35.996 0.014,26.945 0.014,18.002 C0.014,13.309 1.665,8.923 4.663,5.653 C8.047,1.960 12.836,0.009 18.514,0.009 C30.713,0.009 37.094,9.061 37.094,18.002 C37.094,22.699 35.434,27.085 32.422,30.356 C29.022,34.046 24.212,35.997 18.514,35.996 ZM18.514,8.375 C11.698,8.375 8.647,13.154 8.647,17.888 C8.647,22.527 11.769,27.520 18.622,27.520 C21.630,27.520 24.130,26.505 25.851,24.587 C27.393,22.869 28.242,20.533 28.242,18.009 C28.242,13.369 25.198,8.375 18.514,8.375 ZM56.882,42.867 C68.849,42.867 75.110,51.747 75.110,60.519 C75.110,65.124 73.482,69.428 70.527,72.637 C67.191,76.256 62.474,78.170 56.882,78.170 C44.968,78.170 38.735,69.290 38.735,60.519 C38.735,55.914 40.355,51.612 43.295,48.404 C46.616,44.783 51.314,42.867 56.882,42.867 ZM56.990,70.070 C59.987,70.070 62.480,69.053 64.199,67.129 C65.738,65.405 66.587,63.059 66.587,60.525 C66.587,55.870 63.550,50.860 56.882,50.860 C53.884,50.860 51.391,51.877 49.673,53.801 C48.132,55.526 47.284,57.871 47.284,60.405 C47.284,65.059 50.322,70.070 56.990,70.070 Z" class="cls-1"/>
</svg>
