<svg xmlns="http://www.w3.org/2000/svg" xmlns:xlink="http://www.w3.org/1999/xlink" preserveAspectRatio="xMidYMid" width="54.06" height="51.38" viewBox="0 0 54.06 51.38">
  <defs>
    <style>
      .cls-1 {
        fill: #fff;
        opacity: 0.27;
        fill-rule: evenodd;
      }
    </style>
  </defs>
  <path d="M54.046,25.690 L46.331,19.423 L48.888,9.816 L38.954,9.282 L35.383,0.002 L27.030,5.413 L18.677,0.002 L15.106,9.282 L5.171,9.816 L7.729,19.423 L0.014,25.690 L7.729,31.956 L5.171,41.563 L15.106,42.097 L18.677,51.377 L27.030,45.966 L35.383,51.377 L38.954,42.097 L48.888,41.563 L46.331,31.956 L54.046,25.690 ZM36.359,38.522 L33.562,45.781 L27.030,41.552 L20.498,45.786 L17.701,38.528 L9.926,38.113 L11.932,30.594 L5.897,25.690 L11.932,20.785 L9.931,13.271 L17.706,12.856 L20.504,5.598 L27.030,9.827 L33.562,5.592 L36.359,12.851 L44.134,13.265 L42.128,20.785 L48.163,25.690 L42.128,30.594 L44.129,38.108 L36.359,38.522 Z" class="cls-1"/>
</svg>
