<svg xmlns="http://www.w3.org/2000/svg" xmlns:xlink="http://www.w3.org/1999/xlink" preserveAspectRatio="xMidYMid" width="19.22" height="20.03" viewBox="0 0 19.22 20.03">
  <defs>
    <style>
      .cls-1 {
        fill: #fff;
        opacity: 0.35;
        fill-rule: evenodd;
      }
    </style>
  </defs>
  <path d="M4.107,17.944 C3.918,18.155 3.531,18.328 3.248,18.328 L1.408,18.328 C1.125,18.328 0.991,18.032 1.180,17.821 L15.238,2.179 C15.428,1.968 15.814,1.791 16.097,1.786 L17.786,1.750 C18.254,1.750 18.267,2.093 18.078,2.305 L4.107,17.944 ZM4.732,9.227 C1.621,9.227 -0.007,6.908 -0.007,4.617 C-0.007,3.415 0.416,2.292 1.184,1.454 C2.051,0.508 3.278,0.008 4.732,0.008 C7.857,0.008 9.492,2.327 9.492,4.617 C9.492,5.820 9.067,6.944 8.295,7.782 C7.424,8.727 6.192,9.227 4.732,9.227 ZM4.732,2.151 C2.986,2.151 2.205,3.375 2.205,4.588 C2.205,5.777 3.004,7.055 4.760,7.055 C5.531,7.055 6.171,6.796 6.612,6.304 C7.007,5.864 7.224,5.266 7.224,4.619 C7.224,3.430 6.444,2.151 4.732,2.151 ZM14.561,10.987 C17.626,10.987 19.230,13.261 19.230,15.508 C19.230,16.688 18.813,17.791 18.056,18.613 C17.202,19.540 15.993,20.030 14.561,20.030 C11.509,20.030 9.912,17.755 9.912,15.508 C9.912,14.329 10.327,13.227 11.080,12.405 C11.931,11.478 13.135,10.987 14.561,10.987 ZM14.588,17.955 C15.356,17.955 15.995,17.695 16.435,17.202 C16.830,16.760 17.047,16.159 17.047,15.510 C17.047,14.318 16.269,13.034 14.561,13.034 C13.793,13.034 13.154,13.295 12.714,13.788 C12.319,14.230 12.102,14.830 12.102,15.480 C12.102,16.672 12.880,17.955 14.588,17.955 Z" class="cls-1"/>
</svg>
