<svg xmlns="http://www.w3.org/2000/svg" xmlns:xlink="http://www.w3.org/1999/xlink" preserveAspectRatio="xMidYMid" width="23.438" height="22.25" viewBox="0 0 23.438 22.25">
  <defs>
    <style>
      .cls-1 {
        fill: #fff;
        opacity: 0.28;
        fill-rule: evenodd;
      }
    </style>
  </defs>
  <path d="M23.424,11.120 L20.081,8.404 L21.189,4.242 L16.885,4.011 L15.338,-0.010 L11.719,2.335 L8.100,-0.010 L6.553,4.011 L2.249,4.242 L3.357,8.404 L0.014,11.120 L3.357,13.834 L2.249,17.997 L6.553,18.228 L8.100,22.249 L11.719,19.904 L15.338,22.249 L16.885,18.228 L21.189,17.997 L20.081,13.834 L23.424,11.120 ZM15.761,16.679 L14.549,19.824 L11.719,17.992 L8.889,19.826 L7.677,16.682 L4.309,16.502 L5.178,13.244 L2.563,11.120 L5.178,8.995 L4.311,5.739 L7.680,5.560 L8.891,2.415 L11.719,4.247 L14.549,2.413 L15.761,5.557 L19.129,5.737 L18.260,8.995 L20.875,11.120 L18.260,13.244 L19.127,16.500 L15.761,16.679 Z" class="cls-1"/>
</svg>
