<svg xmlns="http://www.w3.org/2000/svg" xmlns:xlink="http://www.w3.org/1999/xlink" preserveAspectRatio="xMidYMid" width="33" height="29" viewBox="0 0 33 29">
  <defs>
    <style>
      .cls-1 {
        fill: #509ae4;
        fill-rule: evenodd;
      }
    </style>
  </defs>
  <path d="M31.886,19.076 C31.163,21.331 29.827,23.374 27.851,25.151 C26.237,26.664 24.205,27.911 21.839,28.866 C21.004,29.211 20.058,28.866 19.668,28.097 L18.305,25.363 C17.915,24.568 18.277,23.586 19.139,23.241 C21.171,22.419 22.674,21.357 23.676,20.057 C24.901,18.439 25.569,16.290 25.624,13.610 L20.392,13.610 C19.473,13.610 18.722,12.894 18.722,12.018 L18.722,1.591 C18.722,0.715 19.473,-0.001 20.392,-0.001 L31.330,-0.001 C32.248,-0.001 32.999,0.715 32.999,1.591 L32.999,9.736 C32.999,13.689 32.610,16.794 31.886,19.076 ZM9.674,25.151 C8.032,26.637 6.028,27.884 3.690,28.839 C2.855,29.184 1.909,28.839 1.519,28.070 L0.156,25.363 C-0.234,24.568 0.128,23.586 0.991,23.241 C3.022,22.419 4.525,21.357 5.527,20.057 C6.752,18.439 7.420,16.290 7.475,13.610 L2.215,13.610 C1.297,13.610 0.545,12.894 0.545,12.018 L0.545,1.591 C0.545,0.715 1.297,-0.001 2.215,-0.001 L13.153,-0.001 C14.071,-0.001 14.823,0.715 14.823,1.591 L14.823,9.736 C14.823,13.716 14.461,16.821 13.737,19.049 C13.014,21.304 11.650,23.348 9.674,25.151 Z" class="cls-1"/>
</svg>
